<svg data-v-423bf9ae="" xmlns="http://www.w3.org/2000/svg" viewBox="0 0 278 90" class="iconLeft"><!----><!----><!----><g data-v-423bf9ae="" id="886cac8a-0601-4b6a-a492-6060de4752d1" fill="white" transform="matrix(3.597122236345648,0,0,3.597122236345648,159.4437596705497,4.532374221909265)"><path d="M7.56 5.17L7.56 5.17L5.39 5.00L5.39 5.00Q5.36 5.89 4.82 9.14L4.82 9.14L4.82 9.14Q4.28 12.38 4.28 13.70L4.28 13.70L4.28 13.70Q4.28 15.02 4.83 15.62L4.83 15.62L4.83 15.62Q4.40 16.13 3.85 16.13L3.85 16.13L3.85 16.13Q2.77 16.13 2.77 14.28L2.77 14.28L2.77 14.28Q2.77 13.51 3.28 10.21L3.28 10.21L3.28 10.21Q3.79 6.92 3.79 5.66L3.79 5.66L3.79 5.66Q3.79 5.22 3.78 4.98L3.78 4.98L3.78 4.98Q1.83 5.00 0.60 5.43L0.60 5.43L0.60 5.43Q0.66 4.52 0.99 4.19L0.99 4.19L0.99 4.19Q1.32 3.86 1.97 3.86L1.97 3.86L7.18 3.92L7.18 3.92Q8.48 3.92 8.92 3.65L8.92 3.65L8.92 3.65Q8.86 4.56 8.55 4.87L8.55 4.87L8.55 4.87Q8.23 5.17 7.56 5.17ZM9.55 16.23L9.55 16.23L9.55 16.23Q8.60 16.23 8.04 15.29L8.04 15.29L8.04 15.29Q7.49 14.35 7.49 12.71L7.49 12.71L7.49 12.71Q7.49 10.08 8.67 8.27L8.67 8.27L8.67 8.27Q9.86 6.45 11.59 6.45L11.59 6.45L11.59 6.45Q12.78 6.45 13.57 7.39L13.57 7.39L13.57 7.39Q13.68 6.96 13.85 6.78L13.85 6.78L13.85 6.78Q14.03 6.59 14.40 6.59L14.40 6.59L14.40 6.59Q14.77 6.59 15.09 6.96L15.09 6.96L15.09 6.96Q14.84 7.63 14.66 9.21L14.66 9.21L14.66 9.21Q14.48 10.79 14.48 12.16L14.48 12.16L14.48 12.16Q14.48 13.52 14.62 14.27L14.62 14.27L14.62 14.27Q14.77 15.02 15.12 15.61L15.12 15.61L15.12 15.61Q14.71 16.13 14.17 16.13L14.17 16.13L14.17 16.13Q12.96 16.13 12.96 13.17L12.96 13.17L12.96 13.17Q12.96 12.70 13.08 11.51L13.08 11.51L13.08 11.51Q12.35 13.54 11.35 14.88L11.35 14.88L11.35 14.88Q10.35 16.23 9.55 16.23ZM11.65 7.42L11.65 7.42L11.65 7.42Q10.46 7.42 9.71 8.81L9.71 8.81L9.71 8.81Q8.96 10.19 8.96 12.36L8.96 12.36L8.96 12.36Q8.96 13.47 9.25 14.11L9.25 14.11L9.25 14.11Q9.53 14.74 10.03 14.74L10.03 14.74L10.03 14.74Q10.53 14.74 11.29 13.65L11.29 13.65L11.29 13.65Q12.05 12.56 12.68 10.98L12.68 10.98L12.68 10.98Q13.31 9.41 13.45 8.15L13.45 8.15L13.45 8.15Q12.50 7.42 11.65 7.42ZM20.86 15.27L20.86 15.27L20.86 15.27Q21.99 15.27 22.64 14.04L22.64 14.04L22.64 14.04Q23.30 12.80 23.30 10.89L23.30 10.89L23.30 10.89Q23.30 9.62 22.99 8.78L22.99 8.78L22.99 8.78Q22.69 7.94 22.15 7.94L22.15 7.94L22.15 7.94Q21.60 7.94 20.89 9.03L20.89 9.03L20.89 9.03Q20.19 10.12 19.64 11.70L19.64 11.70L19.64 11.70Q19.10 13.27 19.03 14.55L19.03 14.55L19.03 14.55Q20.02 15.27 20.86 15.27ZM17.43 15.78L17.43 15.78Q17.72 13.93 18.12 10.24L18.12 10.24L18.12 10.24Q18.52 6.55 18.52 5.53L18.52 5.53L18.52 5.53Q18.52 4.51 18.47 4.04L18.47 4.04L18.47 4.04Q18.41 3.57 18.23 3.22L18.23 3.22L18.23 3.22Q18.58 2.91 19.12 2.91L19.12 2.91L19.12 2.91Q19.67 2.91 19.90 3.25L19.90 3.25L19.90 3.25Q20.13 3.58 20.13 4.37L20.13 4.37L20.13 4.37Q20.13 5.15 19.21 11.19L19.21 11.19L19.21 11.19Q19.84 9.14 20.78 7.80L20.78 7.80L20.78 7.80Q21.71 6.45 22.50 6.45L22.50 6.45L22.50 6.45Q23.45 6.45 24.10 7.46L24.10 7.46L24.10 7.46Q24.75 8.46 24.75 10.46L24.75 10.46L24.75 10.46Q24.75 12.63 23.86 14.35L23.86 14.35L23.86 14.35Q23.41 15.19 22.66 15.71L22.66 15.71L22.66 15.71Q21.91 16.23 20.97 16.23L20.97 16.23L20.97 16.23Q19.77 16.23 18.93 15.29L18.93 15.29L18.93 15.29Q18.84 15.75 18.68 15.95L18.68 15.95L18.68 15.95Q18.51 16.14 18.15 16.14L18.15 16.14L18.15 16.14Q17.79 16.14 17.43 15.78L17.43 15.78ZM31.39 7.88L31.39 7.88L31.39 7.88Q31.39 7.48 31.23 7.21L31.23 7.21L31.23 7.21Q31.56 6.69 32.23 6.69L32.23 6.69L32.23 6.69Q32.87 6.69 32.87 7.41L32.87 7.41L32.87 7.41Q32.87 8.11 32.30 10.25L32.30 10.25L32.30 10.25Q31.72 12.39 31.13 13.88L31.13 13.88L31.13 13.88Q30.53 15.37 29.84 16.65L29.84 16.65L29.84 16.65Q29.15 17.93 28.20 18.76L28.20 18.76L28.20 18.76Q27.26 19.59 26.26 19.59L26.26 19.59L26.26 19.59Q24.33 19.59 24.33 18.28L24.33 18.28L24.33 18.28Q24.33 17.68 24.78 17.16L24.78 17.16L24.78 17.16Q25.16 18.41 26.45 18.41L26.45 18.41L26.45 18.41Q27.99 18.41 29.29 15.72L29.29 15.72L29.29 15.72Q28.87 15.72 28.69 15.57L28.69 15.57L28.69 15.57Q28.50 15.41 28.42 15.11L28.42 15.11L28.42 15.11Q27.36 10.63 26.73 9.11L26.73 9.11L26.73 9.11Q26.11 7.60 25.52 7.57L25.52 7.57L25.52 7.57Q25.68 7.10 26.01 6.87L26.01 6.87L26.01 6.87Q26.35 6.65 26.67 6.65L26.67 6.65L26.67 6.65Q27.52 6.65 28.10 8.09L28.10 8.09L28.10 8.09Q28.48 9.07 29.74 14.71L29.74 14.71L29.74 14.71Q30.48 12.87 30.93 10.92L30.93 10.92L30.93 10.92Q31.39 8.97 31.39 7.88Z"></path></g><!----><g data-v-423bf9ae="" id="e61a4516-76fb-4856-a877-d0e23ca0927a" transform="matrix(1.517706693887182,0,0,1.517706693887182,-4.56122165367708,-28.991740771938055)" stroke="none" fill="white"><path d="M55.2 60.9c4.1-3.5 10.3-7.4 17.2-7.4 2 0 3.9.4 5.5 1 2-4.5 1.9-9.4 2.4-13.7v-.2C80.7 37.1 83 33 83 33s-4 2.2-7.5 2.7h-.2c-4.3.5-9.3.4-13.7 2.4.6 1.7 1 3.5 1 5.5 0 7-4 13.2-7.4 17.3z"></path><path d="M89.5 62.6l-.2-.2c-3.4-2.7-6.8-6.3-11.4-8-.7 1.6-1.7 3.2-3.2 4.6-4.9 4.9-12 6.5-17.4 6.9-4.2.4-7.3 0-7.3 0s1.9 2.4 5.2 5.2c4.1 3.5 10.3 7.4 17.2 7.4 2 0 3.9-.4 5.5-1 4.6-1.7 8-5.3 11.4-8l.2-.2c2.7-2.1 7.2-3.4 7.2-3.4s-4.5-1.1-7.2-3.3zM42.7 66c-5.4-.4-12.5-2-17.4-6.9-1.4-1.4-2.4-3-3.2-4.6-4.6 1.7-8 5.3-11.4 8l-.2.2C7.8 64.8 3.4 66 3.4 66s4.4 1.3 7.2 3.4c.1 0 .1.1.2.2 3.4 2.7 6.8 6.3 11.4 8 1.7.6 3.5 1 5.5 1 6.9 0 13.1-3.9 17.2-7.4C48.1 68.5 50 66 50 66s-3.1.4-7.3 0zM44.8 60.9c-3.5-4.1-7.4-10.3-7.4-17.2 0-2 .4-3.9 1-5.5-4.5-2-9.4-1.9-13.7-2.4h-.2C21 35.3 17 33 17 33s2.2 4 2.7 7.5v.2c.5 4.3.4 9.3 2.4 13.7 1.7-.6 3.5-1 5.5-1 6.9.1 13.1 4 17.2 7.5z"></path><path d="M50 58.7c.4-5.4 2-12.5 6.9-17.4 1.4-1.4 3-2.5 4.6-3.2-1.7-4.6-5.3-8-8-11.4l-.2-.2c-2.1-2.7-3.4-7.2-3.4-7.2s-1.3 4.4-3.4 7.2l-.2.2c-2.7 3.4-6.3 6.8-8 11.4 1.6.7 3.2 1.7 4.6 3.2 5.1 4.9 6.7 12.1 7.1 17.4z"></path></g><!----></svg>